<svg width="17" height="18" viewBox="0 0 17 18" fill="none" xmlns="http://www.w3.org/2000/svg">
<path d="M5.16667 10.5C6.16667 10.5 9.33333 11.0625 9.33333 12.375C9.33333 13.6875 7.63133 13.402 6.83333 13.5C6.14247 13.5 4.5 13.5 4.5 14.625C4.5 16.125 11.3482 16.5 12.6667 16.5" stroke="#212121" stroke-width="1.5" stroke-linecap="round" stroke-linejoin="round"/>
<path d="M10.8335 5.625C10.8335 4.02499 9.41006 1.5 7.43516 1.5C5.4603 1.5 3.9445 4.5 3.34853 7.30001C2.75256 10.1 2.8377 13.5 2.8377 13.5" stroke="#212121" stroke-width="1.5" stroke-linecap="round" stroke-linejoin="round"/>
<path d="M9.1665 9C9.1665 8.0625 9.63317 6.375 11.1665 6.375C12.4998 6.375 13.2332 7.8909 13.4998 9.1875C13.7665 10.4841 13.8332 12.375 13.8332 12.375" stroke="#212121" stroke-width="1.5" stroke-linecap="round" stroke-linejoin="round"/>
</svg>
