<svg width="158" height="33" viewBox="0 0 158 33" fill="none" xmlns="http://www.w3.org/2000/svg">
<path d="M52.6708 19.9591C52.6708 23.9834 49.3684 27.1174 45.5727 27.1174C43.8342 27.1174 42.3304 26.4798 41.1694 25.4391V26.8587H38.1016V5.41992H41.1694V14.4851C42.3304 13.4685 43.8342 12.8309 45.5727 12.8309C49.3684 12.8309 52.6708 15.9288 52.6708 19.9591ZM49.5428 19.9591C49.5428 17.6432 47.66 15.7303 45.3681 15.7303C43.0763 15.7303 41.1694 17.6432 41.1694 19.9591C41.1694 22.275 43.0221 24.218 45.3681 24.218C47.7141 24.218 49.5428 22.3051 49.5428 19.9591Z" fill="#0000FF"/>
<path d="M68.0522 13.0957V26.8589H64.9843V25.4393C63.8234 26.48 62.3195 27.1176 60.5811 27.1176C56.7854 27.1176 53.4829 23.9896 53.4829 19.9593C53.4829 15.929 56.7854 12.8311 60.5811 12.8311C62.3195 12.8311 63.8234 13.4687 64.9843 14.4853V13.0957H68.0522ZM64.9843 19.9593C64.9843 17.6434 63.1316 15.7305 60.7856 15.7305C58.4396 15.7305 56.6169 17.6434 56.6169 19.9593C56.6169 22.2752 58.4997 24.2182 60.7856 24.2182C63.0714 24.2182 64.9843 22.3053 64.9843 19.9593Z" fill="#0000FF"/>
<path d="M74.5971 24.4227C76.0769 24.4227 76.6544 23.755 76.6544 23.0873C76.6544 20.5668 69.6705 22.0466 69.6705 17.0599C69.6705 14.6537 71.4089 12.8311 74.4768 12.8311C76.5942 12.8311 78.3868 13.4386 79.6079 14.5093L77.9838 16.711C76.913 15.9891 75.8423 15.6402 74.4768 15.6402C73.1113 15.6402 72.6782 16.1636 72.6782 16.8012C72.6782 19.1773 79.5718 18.0163 79.5718 22.973C79.5718 25.4092 77.7732 27.2018 74.3866 27.2018C71.9263 27.2018 70.3322 26.3055 69.0269 25.2889L70.651 22.9429C71.9563 24.0437 73.4301 24.4227 74.5911 24.4227H74.5971Z" fill="#0000FF"/>
<path d="M80.4497 20.0193C80.4497 16.0491 83.6619 12.8369 87.7223 12.8369C91.7827 12.8369 95.025 16.0491 95.025 20.0193C95.025 23.9894 91.8067 27.2016 87.7223 27.2016C83.6379 27.2016 80.4497 23.9593 80.4497 20.0193ZM91.891 20.0193C91.891 17.7274 90.1224 15.7905 87.7163 15.7905C85.3101 15.7905 83.5717 17.7334 83.5717 20.0193C83.5717 22.3051 85.3402 24.2782 87.7163 24.2782C90.0924 24.2782 91.891 22.3111 91.891 20.0193Z" fill="#0000FF"/>
<path d="M111.357 19.9591C111.357 23.9834 108.054 27.1174 104.259 27.1174C102.52 27.1174 101.016 26.4798 99.8554 25.4391V26.8587H96.7876V5.41992H99.8554V14.4851C101.016 13.4685 102.52 12.8309 104.259 12.8309C108.054 12.8309 111.357 15.9288 111.357 19.9591ZM108.229 19.9591C108.229 17.6432 106.346 15.7303 104.054 15.7303C101.762 15.7303 99.8554 17.6432 99.8554 19.9591C99.8554 22.275 101.708 24.218 104.054 24.218C106.4 24.218 108.229 22.3051 108.229 19.9591Z" fill="#0000FF"/>
<path d="M126.738 13.0957V26.8589H123.67V25.4393C122.509 26.48 121.006 27.1176 119.267 27.1176C115.471 27.1176 112.169 23.9896 112.169 19.9593C112.169 15.929 115.471 12.8311 119.267 12.8311C121.006 12.8311 122.509 13.4687 123.67 14.4853V13.0957H126.738ZM123.67 19.9593C123.67 17.6434 121.818 15.7305 119.472 15.7305C117.126 15.7305 115.303 17.6434 115.303 19.9593C115.303 22.2752 117.186 24.2182 119.472 24.2182C121.757 24.2182 123.67 22.3053 123.67 19.9593Z" fill="#0000FF"/>
<path d="M142.498 13.0957V26.8589H139.431V25.4393C138.27 26.48 136.766 27.1176 135.027 27.1176C131.232 27.1176 127.929 23.9896 127.929 19.9593C127.929 15.929 131.232 12.8311 135.027 12.8311C136.766 12.8311 138.27 13.4687 139.431 14.4853V13.0957H142.498ZM139.431 19.9593C139.431 17.6434 137.578 15.7305 135.232 15.7305C132.886 15.7305 131.063 17.6434 131.063 19.9593C131.063 22.2752 132.946 24.2182 135.232 24.2182C137.518 24.2182 139.431 22.3053 139.431 19.9593Z" fill="#0000FF"/>
<path d="M149.043 24.4227C150.523 24.4227 151.101 23.755 151.101 23.0873C151.101 20.5668 144.117 22.0466 144.117 17.0599C144.117 14.6537 145.855 12.8311 148.923 12.8311C151.041 12.8311 152.833 13.4386 154.054 14.5093L152.43 16.711C151.359 15.9891 150.289 15.6402 148.923 15.6402C147.558 15.6402 147.124 16.1636 147.124 16.8012C147.124 19.1773 154.018 18.0163 154.018 22.973C154.018 25.4092 152.22 27.2018 148.833 27.2018C146.373 27.2018 144.778 26.3055 143.473 25.2889L145.097 22.9429C146.403 24.0437 147.876 24.4227 149.037 24.4227H149.043Z" fill="#0000FF"/>
<path d="M16.2415 2.8934L30.0769 12.115V25.5834L24.0615 28.5911V24.6631H2.40615V12.115L16.2415 2.8934ZM16.2415 0L0 10.8277V27.0692H21.6554V32.4831L32.4831 27.0692V10.8277L16.2415 0Z" fill="#0000FF"/>
<path d="M0 10.8278L5.41384 5.41392V1.80469H0V10.8278Z" fill="#0000FF"/>
<path d="M158 25.3312C158 26.2275 157.302 26.9133 156.418 26.9133C155.534 26.9133 154.836 26.2275 154.836 25.3312C154.836 24.4349 155.504 23.7432 156.418 23.7432C157.332 23.7432 158 24.459 158 25.3312ZM157.621 25.3312C157.621 24.6455 157.122 24.1041 156.418 24.1041C155.714 24.1041 155.215 24.6455 155.215 25.3312C155.215 26.017 155.738 26.5403 156.418 26.5403C157.098 26.5403 157.621 26.029 157.621 25.3312ZM156.791 25.4936L157.146 26.1373H156.707L156.406 25.5478H156.25V26.1373H155.828V24.4831H156.496C156.893 24.4831 157.116 24.6936 157.116 25.0124C157.116 25.241 157.002 25.4154 156.791 25.4997V25.4936ZM156.25 25.2049H156.472C156.611 25.2049 156.683 25.1387 156.683 25.0244C156.683 24.9101 156.611 24.844 156.472 24.844H156.25V25.2049Z" fill="#0000FF"/>
</svg>
